M48
INCH,TZ
T1C0.035
T2C0.067
T3C0.120
T4C0.157
%
G90
G05
T1
X17628Y-18583
X19360Y-18583
T2
X13000Y-20625
X13938Y-50625
X14875Y-28125
X15813Y-35625
X17000Y-20625
X17688Y-43125
X17938Y-50625
X18875Y-28125
X19813Y-35625
X20500Y-20625
X21687Y-43125
X23313Y-50625
X24250Y-28125
X24500Y-20625
X26125Y-35625
X27312Y-50625
X28000Y-20625
X28250Y-28125
X29875Y-43125
X30125Y-35625
X31750Y-28125
X32000Y-20625
X32688Y-50625
X33625Y-35625
X33875Y-43125
X35500Y-20625
X35750Y-28125
X36688Y-50625
X37375Y-43125
X37625Y-35625
X39250Y-28125
X39500Y-20625
X41125Y-35625
X41375Y-43125
X43000Y-20625
X43250Y-28125
X44875Y-43125
X45125Y-35625
X46750Y-28125
X47000Y-20625
X48625Y-35625
X48875Y-43125
X50500Y-20625
X50750Y-28125
X52375Y-43125
X52625Y-35625
X54250Y-28125
X54500Y-20625
X56125Y-35625
X56375Y-43125
X58000Y-20625
X58250Y-28125
X59875Y-43125
X60125Y-35625
X60813Y-50625
X61750Y-28125
X62000Y-20625
X63625Y-35625
X63875Y-43125
X64813Y-50625
X65500Y-20625
X65750Y-28125
X67375Y-43125
X67625Y-35625
X69250Y-28125
X69500Y-20625
X71125Y-35625
X71375Y-43125
X73000Y-20625
X73250Y-28125
X74875Y-43125
X75125Y-35625
X76750Y-28125
X77000Y-20625
X78625Y-35625
X78875Y-43125
X80500Y-20625
X80750Y-28125
X82375Y-43125
X82625Y-35625
X84250Y-28125
X84500Y-20625
X86125Y-35625
X86375Y-43125
X88000Y-20625
X88000Y-50625
X88250Y-28125
X88937Y-50625
X89875Y-43125
X90125Y-35625
X91750Y-28125
X92000Y-20625
X92000Y-50625
X92938Y-50625
X93625Y-35625
X93875Y-43125
X95500Y-20625
X95500Y-50625
X95750Y-28125
X97375Y-43125
X97625Y-35625
X98312Y-50625
X99250Y-28125
X99500Y-20625
X99500Y-50625
X101125Y-35625
X101375Y-43125
X102313Y-50625
X103000Y-20625
X103000Y-50625
X103250Y-28125
X105125Y-35625
X106750Y-28125
X107000Y-20625
X107000Y-50625
X107687Y-43125
X110500Y-50625
X110750Y-28125
X111688Y-43125
X113312Y-35625
X114250Y-20625
X114500Y-50625
X116125Y-28125
X117313Y-35625
X118000Y-43125
X118000Y-50625
X118250Y-20625
X120125Y-28125
X122000Y-43125
X122000Y-50625
X125500Y-20625
X125500Y-28125
X125500Y-35625
X125500Y-43125
X125500Y-50625
X129500Y-20625
X129500Y-28125
X129500Y-35625
X129500Y-43125
X129500Y-50625
T3
X14988Y-45875
X24387Y-45875
X43113Y-53375
X82513Y-53375
X110613Y-38375
X111550Y-17875
X120013Y-38375
X120950Y-17875
T4
X14988Y-39875
X15000Y-20625
X15938Y-50625
X16875Y-28125
X17813Y-35625
X19688Y-43125
X22500Y-20625
X24387Y-39875
X25313Y-50625
X26250Y-28125
X28125Y-35625
X30000Y-20625
X31875Y-43125
X33750Y-28125
X34688Y-50625
X35625Y-35625
X37500Y-20625
X39375Y-43125
X41250Y-28125
X43113Y-47375
X43125Y-35625
X45000Y-20625
X46875Y-43125
X48750Y-28125
X50625Y-35625
X52500Y-20625
X54375Y-43125
X56250Y-28125
X58125Y-35625
X60000Y-20625
X61875Y-43125
X62813Y-50625
X63750Y-28125
X65625Y-35625
X67500Y-20625
X69375Y-43125
X71250Y-28125
X73125Y-35625
X75000Y-20625
X76875Y-43125
X78750Y-28125
X80625Y-35625
X82500Y-20625
X82513Y-47375
X84375Y-43125
X86250Y-28125
X88125Y-35625
X90000Y-20625
X90000Y-50625
X90938Y-50625
X91875Y-43125
X93750Y-28125
X95625Y-35625
X97500Y-20625
X97500Y-50625
X99375Y-43125
X100313Y-50625
X101250Y-28125
X103125Y-35625
X105000Y-20625
X105000Y-50625
X108750Y-28125
X109688Y-43125
X110613Y-32375
X111550Y-23875
X112500Y-50625
X115313Y-35625
X116250Y-20625
X118125Y-28125
X120000Y-43125
X120000Y-50625
X120013Y-32375
X120950Y-23875
X127500Y-20625
X127500Y-28125
X127500Y-35625
X127500Y-43125
X127500Y-50625
T0
M30
