M48
INCH,TZ
T1C0.016
T2C0.039
T3C0.059
T4C0.106
%
G90
G05
T1
X17451Y-23666
X18632Y-30851
X18829Y-24060
X19715Y-23962
X21289Y-38529
X22175Y-23666
X22241Y-30917
X22569Y-38922
X23356Y-38430
X27589Y-46599
X30541Y-48765
X31230Y-45910
X35069Y-31048
X37136Y-38824
X38415Y-25930
X38514Y-52899
X39793Y-51619
X39990Y-48568
X40974Y-45418
X47274Y-47682
X47470Y-50733
X47470Y-51521
X47667Y-47682
X47767Y-47383
X48258Y-47485
X48947Y-51619
X50325Y-50143
X51211Y-46698
X51703Y-46599
X52096Y-52997
X52293Y-46698
X52392Y-51718
X52490Y-47092
X52589Y-53194
X53081Y-47092
X53179Y-48962
X53376Y-51422
X53612Y-53095
X55049Y-49847
X55049Y-50438
X55319Y-49231
X55325Y-50162
X55344Y-50782
X55443Y-49552
X55738Y-52997
X63809Y-47682
X78868Y-23371
X87628Y-45320
X87726Y-46009
X96191Y-46206
X104951Y-46403
T2
X78770Y-19237
X78770Y-20237
T3
X14000Y-22625
X14938Y-52625
X15875Y-30125
X16500Y-21625
X16813Y-37625
X17438Y-51625
X18375Y-29125
X18688Y-45125
X19313Y-36625
X21188Y-44125
X21500Y-22625
X24000Y-21625
X24313Y-52625
X25250Y-30125
X26813Y-51625
X27125Y-37625
X27750Y-29125
X29000Y-22625
X29625Y-36625
X30875Y-45125
X31500Y-21625
X32750Y-30125
X33375Y-44125
X33688Y-52625
X34625Y-37625
X35250Y-29125
X36188Y-51625
X36500Y-22625
X37125Y-36625
X38375Y-45125
X39000Y-21625
X40250Y-30125
X40875Y-44125
X42125Y-37625
X42750Y-29125
X44000Y-22625
X44625Y-36625
X45875Y-45125
X46500Y-21625
X47750Y-30125
X48375Y-44125
X49625Y-37625
X50250Y-29125
X51500Y-22625
X52125Y-36625
X53375Y-45125
X54000Y-21625
X55250Y-30125
X55875Y-44125
X57125Y-37625
X57750Y-29125
X59000Y-22625
X59625Y-36625
X60875Y-45125
X61500Y-21625
X61812Y-52625
X62750Y-30125
X63375Y-44125
X64313Y-51625
X64625Y-37625
X65250Y-29125
X66500Y-22625
X67125Y-36625
X68375Y-45125
X69000Y-21625
X70250Y-30125
X70875Y-44125
X72125Y-37625
X72750Y-29125
X74000Y-22625
X74625Y-36625
X75875Y-45125
X76500Y-21625
X77750Y-30125
X78375Y-44125
X79625Y-37625
X80250Y-29125
X81500Y-22625
X82125Y-36625
X83375Y-45125
X84000Y-21625
X85250Y-30125
X85875Y-44125
X87125Y-37625
X87750Y-29125
X89000Y-22625
X89000Y-52625
X89625Y-36625
X89938Y-52625
X90875Y-45125
X91500Y-21625
X91500Y-51625
X92438Y-51625
X92750Y-30125
X93375Y-44125
X94625Y-37625
X95250Y-29125
X96500Y-22625
X96500Y-52625
X97125Y-36625
X98375Y-45125
X99000Y-21625
X99000Y-51625
X99313Y-52625
X100250Y-30125
X100875Y-44125
X101813Y-51625
X102125Y-37625
X102750Y-29125
X104000Y-22625
X104000Y-52625
X104625Y-36625
X106500Y-21625
X106500Y-51625
X107750Y-30125
X108688Y-45125
X110250Y-29125
X111188Y-44125
X111500Y-52625
X114000Y-51625
X114313Y-37625
X114750Y-19625
X116813Y-36625
X117125Y-30125
X117250Y-18625
X119000Y-45125
X119000Y-52625
X119625Y-29125
X121500Y-44125
X121500Y-51625
X126500Y-22625
X126500Y-30125
X126500Y-37625
X126500Y-45125
X126500Y-52625
X129000Y-21625
X129000Y-29125
X129000Y-36625
X129000Y-44125
X129000Y-51625
T4
X20866Y-27987G85X21772Y-27987
G05
X20866Y-50625G85X21772Y-50625
G05
X61417Y-35625G85X62323Y-35625
G05
X84656Y-50625G85X85561Y-50625
G05
X113327Y-27987G85X114232Y-27987
G05
X115797Y-50625G85X116703Y-50625
G05
T0
M30
